<svg width="589" height="80" viewBox="0 0 589 80" fill="none" xmlns="http://www.w3.org/2000/svg">
<path d="M262 0H330.5V12.7H303.3V79.3H289.7V12.7H262V0ZM149 0V12.7H94V33.1H138.3V45.7H94V66.7H149V79.3H80.5V0H149.2H149ZM183.3 0H165.5L229.3 79.4H247.2L215.2 39.7L247.2 0.1H229.3L206.3 28.7L183.3 0.1V0ZM201.6 56.7L192.6 45.7L165.5 79.4H183.3L201.6 56.7Z" fill="black"/>
<path d="M81 79.3L17 0H0V79.3H13.6V17L63.8 79.3H81Z" fill="black"/>
<path d="M587.928 73.4C587.928 74.9467 587.368 76.28 586.248 77.4C585.181 78.4667 583.875 79 582.328 79H559.928V73.4H581.528V62.2H565.528C563.981 62.2 562.648 61.6667 561.528 60.6C560.461 59.48 559.928 58.1467 559.928 56.6V45.4C559.928 43.8533 560.461 42.5467 561.528 41.48C562.648 40.36 563.981 39.8 565.528 39.8H587.928V45.4H566.328V56.6H582.328C583.875 56.6 585.181 57.16 586.248 58.28C587.368 59.3467 587.928 60.6533 587.928 62.2V73.4Z" fill="black"/>
<path d="M549.528 79H521.528V51L527.128 45.4H521.528V39.8H549.528V45.4H527.928V61.4L532.728 56.6H549.528V62.2H527.928V73.4H549.528V79Z" fill="black"/>
<path d="M507.147 79H500.747V39.8H507.147V79Z" fill="black"/>
<path d="M491.181 39.8L476.221 79H465.821L451.181 39.8H458.381L470.381 73.56H471.981L483.981 39.8H491.181Z" fill="black"/>
<path d="M441.994 73.4C441.994 74.9467 441.434 76.28 440.314 77.4C439.247 78.4667 437.94 79 436.394 79H413.994C412.447 79 411.114 78.4667 409.994 77.4C408.927 76.28 408.394 74.9467 408.394 73.4V45.4C408.394 43.8533 408.927 42.5467 409.994 41.48C411.114 40.36 412.447 39.8 413.994 39.8H436.394C437.94 39.8 439.247 40.36 440.314 41.48C441.434 42.5467 441.994 43.8533 441.994 45.4V73.4ZM435.594 73.4V45.4H414.794V73.4H435.594Z" fill="black"/>
<path d="M394.4 78.92H388V49.48L390.4 45.48H386.8L376.96 67.8H372.32L362.8 45.48H359.2L361.6 49.48V78.92H355.2V39.8H366.64L374.56 58.52H375.36L383.28 39.8H394.4V78.92Z" fill="black"/>
<path fill-rule="evenodd" clip-rule="evenodd" d="M558.928 80V72.4H580.528V63.2H565.528C563.725 63.2 562.144 62.5679 560.838 61.3241L560.821 61.3073L560.804 61.2897C559.56 59.9837 558.928 58.4034 558.928 56.6V45.4C558.928 43.5956 559.562 42.0323 560.821 40.7729C562.123 39.4704 563.709 38.8 565.528 38.8H588.928V46.4H567.328V55.6H582.328C584.14 55.6 585.703 56.2662 586.955 57.5728C588.262 58.8254 588.928 60.3878 588.928 62.2V73.4C588.928 75.219 588.258 76.8046 586.955 78.1071C585.696 79.3666 584.132 80 582.328 80H558.928ZM586.248 58.28C585.181 57.16 583.875 56.6 582.328 56.6H566.328V45.4H587.928V39.8H565.528C563.981 39.8 562.648 40.36 561.528 41.48C560.461 42.5467 559.928 43.8533 559.928 45.4V56.6C559.928 58.1467 560.461 59.48 561.528 60.6C562.648 61.6667 563.981 62.2 565.528 62.2H581.528V73.4H559.928V79H582.328C583.875 79 585.181 78.4667 586.248 77.4C587.368 76.28 587.928 74.9467 587.928 73.4V62.2C587.928 60.6533 587.368 59.3467 586.248 58.28Z" fill="black"/>
<path fill-rule="evenodd" clip-rule="evenodd" d="M550.528 80H520.528V50.5858L524.714 46.4H520.528V38.8H550.528V46.4H528.928V58.9858L532.314 55.6H550.528V63.2H528.928V72.4H550.528V80ZM527.928 73.4V62.2H549.528V56.6H532.728L527.928 61.4V45.4H549.528V39.8H521.528V45.4H527.128L521.528 51V79H549.528V73.4H527.928Z" fill="black"/>
<path fill-rule="evenodd" clip-rule="evenodd" d="M508.147 80H499.747V38.8H508.147V80ZM507.147 79V39.8H500.747V79H507.147Z" fill="black"/>
<path fill-rule="evenodd" clip-rule="evenodd" d="M492.633 38.8L476.91 80H465.127L449.74 38.8H459.087L471.087 72.56H471.275L483.275 38.8H492.633ZM470.381 73.56L458.381 39.8H451.181L465.821 79H476.221L491.181 39.8H483.981L471.981 73.56H470.381Z" fill="black"/>
<path fill-rule="evenodd" clip-rule="evenodd" d="M409.286 78.1073L409.27 78.0897C408.026 76.7837 407.394 75.2034 407.394 73.4V45.4C407.394 43.5956 408.027 42.0323 409.287 40.7729C410.589 39.4704 412.175 38.8 413.994 38.8H436.394C438.206 38.8 439.768 39.4662 441.021 40.7726C442.328 42.0252 442.994 43.5878 442.994 45.4V73.4C442.994 75.219 442.323 76.8046 441.021 78.1071C439.761 79.3666 438.198 80 436.394 80H413.994C412.19 80 410.61 79.3679 409.304 78.1241L409.286 78.1073ZM440.314 41.48C439.247 40.36 437.94 39.8 436.394 39.8H413.994C412.447 39.8 411.114 40.36 409.994 41.48C408.927 42.5467 408.394 43.8533 408.394 45.4V73.4C408.394 74.9467 408.927 76.28 409.994 77.4C411.114 78.4667 412.447 79 413.994 79H436.394C437.94 79 439.247 78.4667 440.314 77.4C441.434 76.28 441.994 74.9467 441.994 73.4V45.4C441.994 43.8533 441.434 42.5467 440.314 41.48ZM435.594 45.4V73.4H414.794V45.4H435.594ZM415.794 46.4V72.4H434.594V46.4H415.794Z" fill="black"/>
<path fill-rule="evenodd" clip-rule="evenodd" d="M395.4 79.92H387V49.203L388.634 46.48H387.452L377.612 68.8H371.659L362.139 46.48H360.966L362.6 49.203V79.92H354.2V38.8H367.303L374.96 56.899L382.617 38.8H395.4V79.92ZM374.56 58.52L366.64 39.8H355.2V78.92H361.6V49.48L359.2 45.48H362.8L372.32 67.8H376.96L386.8 45.48H390.4L388 49.48V78.92H394.4V39.8H383.28L375.36 58.52H374.56Z" fill="black"/>
</svg>
